<svg width="241" height="51" viewBox="0 0 241 51" fill="none" xmlns="http://www.w3.org/2000/svg">
<path fill-rule="evenodd" clip-rule="evenodd" d="M19.244 2.98109C21.1471 1.45499 22.8191 0.160105 22.9595 0.103484C23.5832 -0.14779 23.6589 -0.103623 26.4573 2.14435C29.0886 4.25799 29.2601 4.48781 28.851 5.35084C28.625 5.82756 28.0107 6.1448 27.5216 6.03732C27.3267 5.99442 26.3533 5.3061 25.3093 4.47294C24.2839 3.65454 23.384 3.00773 23.3095 3.03552C23.2348 3.06331 21.3613 4.53671 19.146 6.30981C16.9309 8.0828 15.0044 9.56981 14.865 9.61409C14.4651 9.74105 13.887 9.58053 13.5843 9.25834C13.3135 8.97005 13.3057 8.90766 13.2711 6.72311L13.2354 4.48343H11.3413H9.44716V9.18569C9.44716 13.155 9.42054 13.9261 9.2763 14.1322C9.18229 14.2665 7.62697 15.5591 5.82002 17.0048L2.5346 19.6331V20.3611V21.089H4.48567C5.55873 21.089 6.56969 21.1396 6.73214 21.2014C6.8947 21.2632 7.13122 21.4838 7.25772 21.6915C7.48249 22.0607 7.48779 22.2776 7.48814 31.2641L7.4886 40.4588L18.8292 40.4894L20.6454 40.4942C20.8726 41.3542 21.1571 42.1908 21.4944 42.9999C20.4363 42.9997 19.2548 42.9991 17.9354 42.9991H5.73742L5.34571 42.607L4.954 42.215V32.9276V23.6403L2.81295 23.6043L0.6719 23.5683L0.33595 23.1917L0 22.8151V20.7336C0 19.5888 0.0503464 18.5579 0.111983 18.4427C0.17362 18.3275 1.72894 17.0287 3.56826 15.5563L6.91255 12.8795L6.91324 8.076C6.91359 5.06025 6.9591 3.10944 7.03548 2.83418C7.11717 2.53954 7.27765 2.32217 7.52443 2.17157C7.86649 1.96285 8.12778 1.94728 11.3118 1.94693C13.2559 1.9467 14.8593 1.99502 15.0272 2.0589C15.6198 2.28446 15.7827 2.77629 15.7832 4.34125L15.7837 5.75583L19.244 2.98109ZM48.2389 18.063C49.406 16.3826 49.9987 14.4327 50 12.2532C50.0017 9.28717 48.9395 6.84177 46.7414 4.752C45.8295 3.88494 44.3279 2.92343 43.6939 2.80062C43.179 2.70099 42.7735 2.8238 42.4448 3.17874L42.1666 3.47926L42.1659 6.54714C42.1655 8.29395 42.1143 9.79894 42.0468 10.0423C41.8286 10.8284 41.5457 10.9412 39.7911 10.9412C38.2549 10.9412 38.2527 10.9408 37.8769 10.6049L37.5006 10.2686L37.443 6.84742L37.3854 3.42621L37.0091 3.08995C36.4994 2.63445 36.0424 2.65175 35.0608 3.16364C31.3514 5.09807 29.1204 9.25961 29.6019 13.3463C29.8009 15.0356 30.3231 16.5074 31.21 17.8448C31.9894 17.4782 32.7971 17.1617 33.6288 16.8994C33.5819 16.8409 33.5415 16.7874 33.5092 16.7403C32.5376 15.3269 32.1084 13.9562 32.1084 12.2673C32.1084 10.2381 32.7542 8.55664 34.0878 7.11392L34.8508 6.28848L34.9084 8.47061C34.9638 10.5688 34.9784 10.6781 35.2879 11.309C35.7017 12.1524 36.6679 13.0474 37.4424 13.3049C37.9147 13.462 38.3841 13.49 40.0071 13.4578C41.8976 13.4203 42.0216 13.4036 42.5698 13.1123C43.3431 12.7013 43.9319 12.0657 44.3141 11.2294C44.6119 10.5778 44.634 10.414 44.6945 8.41215L44.7588 6.28675L45.4659 7.05972C46.8085 8.52735 47.4662 10.2441 47.4662 12.2808C47.4662 14.1351 46.9778 15.5902 45.7945 17.0382C46.6367 17.3253 47.453 17.6684 48.2389 18.063ZM26.3546 21.0967C25.5848 21.0946 24.6149 21.0953 23.3875 21.0967C20.1875 21.1005 17.453 21.1505 17.3109 21.2077C17.1687 21.2649 16.9479 21.4821 16.82 21.6904C16.5937 22.0592 16.5883 22.2265 16.6177 27.9887L16.6477 33.9081L17.024 34.2446L17.4003 34.581H20.0213C20.0612 33.7196 20.1571 32.8727 20.3053 32.0441H19.1247V27.835V23.626H23.3875H24.0308C24.7303 22.716 25.5083 21.8696 26.3546 21.0967Z" fill="#FF5326"/>
<path d="M46.4795 37.9297L46.4902 42.4307C46.2324 42.6885 45.9424 42.8174 45.6201 42.8174C45.5413 42.8174 45.459 42.8102 45.373 42.7959C45.2943 42.7744 45.2083 42.7458 45.1152 42.71C45.0221 42.667 44.9469 42.6348 44.8896 42.6133C44.8324 42.5846 44.7464 42.5417 44.6318 42.4844C44.5244 42.4199 44.4564 42.3805 44.4277 42.3662C43.7832 42.6312 43.0312 42.8496 42.1719 43.0215C41.3197 43.2005 40.5176 43.29 39.7656 43.29C38.6914 43.29 37.7031 43.1361 36.8008 42.8281C35.8984 42.5202 35.1322 42.1048 34.502 41.582C33.8717 41.0592 33.3346 40.4505 32.8906 39.7559C32.4538 39.054 32.1315 38.3128 31.9238 37.5322C31.7161 36.7516 31.6123 35.946 31.6123 35.1152C31.6123 33.9909 31.7949 32.9202 32.1602 31.9033C32.5254 30.8864 33.0303 29.9984 33.6748 29.2393C34.3193 28.4801 35.1178 27.8786 36.0703 27.4346C37.0228 26.9834 38.0505 26.7578 39.1533 26.7578C40.027 26.7578 40.9186 26.9154 41.8281 27.2305C42.7448 27.5384 43.4681 27.9967 43.998 28.6055C43.998 27.5312 44.1377 26.9941 44.417 26.9941H45.6201C45.9639 26.9941 46.1357 27.3665 46.1357 28.1113V30.7646C46.1357 31.1729 46.1143 31.4736 46.0713 31.667C46.0355 31.8532 45.9854 31.9714 45.9209 32.0215C45.8636 32.0645 45.7633 32.0931 45.6201 32.1074H44.7285C44.6712 32.1074 44.5674 32.0251 44.417 31.8604C44.2738 31.6956 44.1055 31.4915 43.9121 31.248C43.7188 30.9974 43.4645 30.7288 43.1494 30.4424C42.8415 30.1488 42.512 29.8802 42.1611 29.6367C41.8102 29.3861 41.3841 29.1784 40.8828 29.0137C40.3887 28.849 39.873 28.7666 39.3359 28.7666C38.6699 28.7666 38.054 28.8883 37.4883 29.1318C36.9225 29.3682 36.4427 29.6904 36.0488 30.0986C35.6549 30.4997 35.3148 30.9723 35.0283 31.5166C34.749 32.0537 34.5413 32.623 34.4053 33.2246C34.2764 33.8262 34.2119 34.4421 34.2119 35.0723C34.2119 35.6738 34.2871 36.2611 34.4375 36.834C34.5951 37.3997 34.835 37.9368 35.1572 38.4453C35.4795 38.9538 35.8662 39.4014 36.3174 39.7881C36.7757 40.1676 37.3236 40.472 37.9609 40.7012C38.6055 40.9232 39.3037 41.0342 40.0557 41.0342C41.4378 41.0342 42.7878 40.8695 44.1055 40.54V38.3271C44.1055 38.0837 44.0876 37.8796 44.0518 37.7148C44.016 37.543 43.9443 37.3711 43.8369 37.1992C43.7367 37.0273 43.5684 36.8984 43.332 36.8125C43.1029 36.7266 42.8128 36.6836 42.4619 36.6836C42.3258 36.6836 42.2327 36.6227 42.1826 36.501C42.1396 36.3792 42.1182 36.1608 42.1182 35.8457C42.1182 35.3659 42.2363 34.9362 42.4727 34.5566C43.3965 34.6354 44.306 34.6748 45.2012 34.6748C45.5664 34.6748 45.9281 34.6676 46.2861 34.6533C46.6442 34.6318 46.9378 34.6104 47.167 34.5889C47.3962 34.5674 47.5358 34.5566 47.5859 34.5566C47.6432 34.6139 47.6969 34.75 47.7471 34.9648C47.8044 35.1725 47.833 35.3587 47.833 35.5234C47.833 35.8027 47.7865 36.0247 47.6934 36.1895C47.6003 36.347 47.4857 36.4616 47.3496 36.5332C47.2207 36.6048 47.0882 36.68 46.9521 36.7588C46.8232 36.8376 46.7122 36.9736 46.6191 37.167C46.526 37.3532 46.4795 37.6074 46.4795 37.9297ZM49.6802 39.8848C49.3365 39.097 49.1646 38.2197 49.1646 37.2529C49.1646 36.2861 49.3365 35.4124 49.6802 34.6318C50.024 33.8512 50.4823 33.221 51.0552 32.7412C51.6282 32.2542 52.2691 31.8818 52.9781 31.624C53.6871 31.3662 54.4283 31.2373 55.2017 31.2373C55.968 31.2373 56.7056 31.3662 57.4146 31.624C58.1236 31.8818 58.761 32.2542 59.3267 32.7412C59.8996 33.221 60.358 33.8512 60.7017 34.6318C61.0455 35.4124 61.2173 36.2861 61.2173 37.2529C61.2173 38.2197 61.0455 39.097 60.7017 39.8848C60.358 40.6654 59.8996 41.2992 59.3267 41.7861C58.761 42.2731 58.1236 42.6455 57.4146 42.9033C56.7056 43.1611 55.968 43.29 55.2017 43.29C54.4283 43.29 53.6871 43.1611 52.9781 42.9033C52.2691 42.6455 51.6282 42.2731 51.0552 41.7861C50.4823 41.2992 50.024 40.6654 49.6802 39.8848ZM52.7203 34.1699C52.0256 34.9076 51.6783 35.9352 51.6783 37.2529C51.6783 38.5706 52.0256 39.6019 52.7203 40.3467C53.4149 41.0843 54.2349 41.4531 55.1802 41.4531C55.6314 41.4531 56.0647 41.3636 56.48 41.1846C56.8954 41.0055 57.2678 40.7477 57.5972 40.4111C57.9338 40.0674 58.2024 39.6234 58.4029 39.0791C58.6034 38.5348 58.7037 37.9261 58.7037 37.2529C58.7037 36.5798 58.6034 35.971 58.4029 35.4268C58.2024 34.8825 57.9338 34.4421 57.5972 34.1055C57.2678 33.7689 56.8954 33.5111 56.48 33.332C56.0647 33.153 55.6314 33.0635 55.1802 33.0635C54.2349 33.0635 53.4149 33.4323 52.7203 34.1699ZM62.9464 39.8848C62.6027 39.097 62.4308 38.2197 62.4308 37.2529C62.4308 36.2861 62.6027 35.4124 62.9464 34.6318C63.2902 33.8512 63.7485 33.221 64.3214 32.7412C64.8943 32.2542 65.5353 31.8818 66.2443 31.624C66.9532 31.3662 67.6945 31.2373 68.4679 31.2373C69.2342 31.2373 69.9718 31.3662 70.6808 31.624C71.3898 31.8818 72.0271 32.2542 72.5929 32.7412C73.1658 33.221 73.6241 33.8512 73.9679 34.6318C74.3116 35.4124 74.4835 36.2861 74.4835 37.2529C74.4835 38.2197 74.3116 39.097 73.9679 39.8848C73.6241 40.6654 73.1658 41.2992 72.5929 41.7861C72.0271 42.2731 71.3898 42.6455 70.6808 42.9033C69.9718 43.1611 69.2342 43.29 68.4679 43.29C67.6945 43.29 66.9532 43.1611 66.2443 42.9033C65.5353 42.6455 64.8943 42.2731 64.3214 41.7861C63.7485 41.2992 63.2902 40.6654 62.9464 39.8848ZM65.9864 34.1699C65.2918 34.9076 64.9445 35.9352 64.9445 37.2529C64.9445 38.5706 65.2918 39.6019 65.9864 40.3467C66.6811 41.0843 67.5011 41.4531 68.4464 41.4531C68.8976 41.4531 69.3308 41.3636 69.7462 41.1846C70.1616 41.0055 70.534 40.7477 70.8634 40.4111C71.2 40.0674 71.4685 39.6234 71.6691 39.0791C71.8696 38.5348 71.9698 37.9261 71.9698 37.2529C71.9698 36.5798 71.8696 35.971 71.6691 35.4268C71.4685 34.8825 71.2 34.4421 70.8634 34.1055C70.534 33.7689 70.1616 33.5111 69.7462 33.332C69.3308 33.153 68.8976 33.0635 68.4464 33.0635C67.5011 33.0635 66.6811 33.4323 65.9864 34.1699ZM84.9137 38.0156V35.2119C84.5342 34.5316 84.0329 34.0016 83.4098 33.6221C82.7868 33.2425 82.1423 33.0527 81.4762 33.0527C80.5596 33.0527 79.7861 33.4144 79.1559 34.1377C78.5329 34.8538 78.2214 35.8994 78.2214 37.2744C78.2214 38.5921 78.558 39.6198 79.2311 40.3574C79.9043 41.0951 80.7028 41.4639 81.6266 41.4639C82.0277 41.4639 82.4216 41.3923 82.8083 41.249C83.195 41.0986 83.5459 40.8838 83.861 40.6045C84.1761 40.3252 84.4304 39.9635 84.6237 39.5195C84.8171 39.0684 84.9137 38.5671 84.9137 38.0156ZM87.3522 28.5195V40.3037C87.3522 40.404 87.3594 40.4899 87.3737 40.5615C87.388 40.626 87.4167 40.6976 87.4596 40.7764C87.5098 40.848 87.5886 40.9053 87.696 40.9482C87.8034 40.9912 87.943 41.0163 88.1149 41.0234C88.7881 41.0521 89.1247 41.2025 89.1247 41.4746C89.1247 42.334 89.0029 42.8711 88.7595 43.0859C88.3656 43.0286 87.9395 43 87.4811 43C86.8366 43 86.2064 43.0286 85.5905 43.0859C85.1393 42.8783 84.9137 42.3805 84.9137 41.5928V41.4961C84.527 42.069 83.9792 42.513 83.2702 42.8281C82.5612 43.1361 81.8307 43.29 81.0788 43.29C80.3913 43.29 79.7324 43.1611 79.1022 42.9033C78.472 42.6455 77.8991 42.2767 77.3835 41.7969C76.875 41.3099 76.4668 40.6761 76.1589 39.8955C75.8509 39.1149 75.697 38.2412 75.697 37.2744C75.697 36.3076 75.8581 35.4339 76.1804 34.6533C76.5026 33.8727 76.9323 33.2425 77.4694 32.7627C78.0137 32.2757 78.6188 31.9033 79.2848 31.6455C79.9509 31.3877 80.6455 31.2552 81.3688 31.248H81.4333C82.8441 31.248 84.0042 31.7744 84.9137 32.8271V30.0127C84.9137 29.6331 84.8027 29.3646 84.5807 29.207C84.3659 29.0495 83.947 28.9564 83.3239 28.9277C83.2308 28.9062 83.1699 28.8597 83.1413 28.7881C83.1198 28.7165 83.1091 28.5625 83.1091 28.3262C83.1091 27.9609 83.1485 27.6387 83.2272 27.3594C83.306 27.0801 83.3848 26.9189 83.4636 26.876C84.058 26.9548 84.6273 26.9941 85.1716 26.9941C85.4938 26.9941 85.834 26.9762 86.1921 26.9404C86.5501 26.8975 86.7399 26.876 86.7614 26.876C87.0121 26.876 87.1732 26.9404 87.2448 27.0693C87.3236 27.1911 87.363 27.4775 87.363 27.9287C87.363 27.9788 87.3594 28.0719 87.3522 28.208C87.3522 28.3369 87.3522 28.4408 87.3522 28.5195ZM91.1223 43.1182C90.9289 43.0036 90.7857 42.7744 90.6926 42.4307C90.5995 42.0869 90.553 41.7324 90.553 41.3672C90.553 41.1953 90.6711 41.0664 90.9075 40.9805C91.1438 40.8945 91.4267 40.8516 91.7561 40.8516C92.0354 40.8516 92.218 40.7943 92.3039 40.6797C92.3899 40.5579 92.4328 40.3896 92.4328 40.1748V29.7979C92.4328 29.583 92.3899 29.4183 92.3039 29.3037C92.218 29.182 92.0354 29.1211 91.7561 29.1211C90.954 29.1211 90.553 28.9349 90.553 28.5625C90.553 28.2116 90.5995 27.8678 90.6926 27.5312C90.7857 27.1875 90.9289 26.9619 91.1223 26.8545C92.3111 26.9476 93.1669 26.9941 93.6897 26.9941C94.3414 26.9941 95.2258 26.9512 96.343 26.8652C96.5006 26.9798 96.6151 27.209 96.6868 27.5527C96.7655 27.8965 96.8049 28.2546 96.8049 28.627C96.8049 28.7988 96.6868 28.9277 96.4504 29.0137C96.2141 29.0996 95.9312 29.1426 95.6018 29.1426C95.4442 29.1426 95.3153 29.1641 95.2151 29.207C95.1148 29.2428 95.0432 29.3001 95.0002 29.3789C94.9644 29.4577 94.9394 29.5293 94.925 29.5938C94.9179 29.651 94.9143 29.7334 94.9143 29.8408V33.5039C94.9143 33.6543 94.9823 33.7295 95.1184 33.7295H103.583C103.719 33.7295 103.787 33.6543 103.787 33.5039V29.8193C103.787 29.6045 103.744 29.4398 103.658 29.3252C103.572 29.2035 103.39 29.1426 103.111 29.1426C102.781 29.1426 102.498 29.0996 102.262 29.0137C102.026 28.9277 101.907 28.7988 101.907 28.627C101.907 28.2546 101.954 27.8965 102.047 27.5527C102.14 27.209 102.283 26.9798 102.477 26.8652C103.58 26.9512 104.435 26.9941 105.044 26.9941C105.696 26.9941 106.58 26.9512 107.697 26.8652C107.855 26.9798 107.97 27.209 108.041 27.5527C108.12 27.8965 108.159 28.2546 108.159 28.627C108.159 28.7988 108.041 28.9277 107.805 29.0137C107.569 29.0996 107.286 29.1426 106.956 29.1426C106.799 29.1426 106.67 29.1641 106.57 29.207C106.469 29.2428 106.398 29.3001 106.355 29.3789C106.319 29.4577 106.294 29.5293 106.28 29.5938C106.272 29.651 106.269 29.7334 106.269 29.8408V40.1533C106.269 40.2607 106.272 40.3467 106.28 40.4111C106.294 40.4684 106.319 40.5365 106.355 40.6152C106.398 40.694 106.469 40.7549 106.57 40.7979C106.67 40.8337 106.799 40.8516 106.956 40.8516C107.286 40.8516 107.569 40.8945 107.805 40.9805C108.041 41.0664 108.159 41.1953 108.159 41.3672C108.159 41.7396 108.12 42.0977 108.041 42.4414C107.97 42.778 107.855 43.0036 107.697 43.1182C106.673 43.0394 105.789 43 105.044 43C104.342 43 103.487 43.0394 102.477 43.1182C102.283 43.0036 102.14 42.7744 102.047 42.4307C101.954 42.0869 101.907 41.7324 101.907 41.3672C101.907 41.1953 102.026 41.0664 102.262 40.9805C102.498 40.8945 102.781 40.8516 103.111 40.8516C103.39 40.8516 103.572 40.7943 103.658 40.6797C103.744 40.5579 103.787 40.3896 103.787 40.1748V35.6309C103.787 35.4805 103.719 35.4053 103.583 35.4053H95.1184C94.9823 35.4053 94.9143 35.4805 94.9143 35.6309V40.1533C94.9143 40.2607 94.9179 40.3467 94.925 40.4111C94.9394 40.4684 94.9644 40.5365 95.0002 40.6152C95.0432 40.694 95.1148 40.7549 95.2151 40.7979C95.3153 40.8337 95.4442 40.8516 95.6018 40.8516C95.9312 40.8516 96.2141 40.8945 96.4504 40.9805C96.6868 41.0664 96.8049 41.1953 96.8049 41.3672C96.8049 41.7396 96.7655 42.0977 96.6868 42.4414C96.6151 42.778 96.5006 43.0036 96.343 43.1182C95.3189 43.0394 94.4345 43 93.6897 43C92.9879 43 92.1321 43.0394 91.1223 43.1182ZM110.136 39.8848C109.792 39.097 109.62 38.2197 109.62 37.2529C109.62 36.2861 109.792 35.4124 110.136 34.6318C110.479 33.8512 110.938 33.221 111.511 32.7412C112.083 32.2542 112.724 31.8818 113.433 31.624C114.142 31.3662 114.884 31.2373 115.657 31.2373C116.423 31.2373 117.161 31.3662 117.87 31.624C118.579 31.8818 119.216 32.2542 119.782 32.7412C120.355 33.221 120.813 33.8512 121.157 34.6318C121.501 35.4124 121.673 36.2861 121.673 37.2529C121.673 38.2197 121.501 39.097 121.157 39.8848C120.813 40.6654 120.355 41.2992 119.782 41.7861C119.216 42.2731 118.579 42.6455 117.87 42.9033C117.161 43.1611 116.423 43.29 115.657 43.29C114.884 43.29 114.142 43.1611 113.433 42.9033C112.724 42.6455 112.083 42.2731 111.511 41.7861C110.938 41.2992 110.479 40.6654 110.136 39.8848ZM113.176 34.1699C112.481 34.9076 112.134 35.9352 112.134 37.2529C112.134 38.5706 112.481 39.6019 113.176 40.3467C113.87 41.0843 114.69 41.4531 115.636 41.4531C116.087 41.4531 116.52 41.3636 116.935 41.1846C117.351 41.0055 117.723 40.7477 118.053 40.4111C118.389 40.0674 118.658 39.6234 118.858 39.0791C119.059 38.5348 119.159 37.9261 119.159 37.2529C119.159 36.5798 119.059 35.971 118.858 35.4268C118.658 34.8825 118.389 34.4421 118.053 34.1055C117.723 33.7689 117.351 33.5111 116.935 33.332C116.52 33.153 116.087 33.0635 115.636 33.0635C114.69 33.0635 113.87 33.4323 113.176 34.1699ZM127.065 32.4727V33.0635C127.58 32.5264 128.196 32.0895 128.912 31.7529C129.636 31.4092 130.348 31.2373 131.05 31.2373C131.688 31.2373 132.264 31.3949 132.78 31.71C133.302 32.0251 133.721 32.512 134.036 33.1709C134.674 32.598 135.386 32.1361 136.174 31.7852C136.969 31.4271 137.728 31.248 138.452 31.248C139.425 31.248 140.217 31.6025 140.826 32.3115C141.434 33.0205 141.739 34.1305 141.739 35.6416V40.25C141.739 40.7155 141.921 40.9626 142.286 40.9912C142.358 40.9984 142.455 41.0055 142.577 41.0127C142.705 41.0199 142.806 41.027 142.877 41.0342C142.949 41.0413 143.038 41.0521 143.146 41.0664C143.253 41.0736 143.339 41.0843 143.404 41.0986C143.468 41.1058 143.54 41.1201 143.619 41.1416C143.697 41.1559 143.758 41.1738 143.801 41.1953C143.851 41.2168 143.898 41.2419 143.941 41.2705C143.984 41.2992 144.012 41.335 144.027 41.3779C144.048 41.4137 144.059 41.4567 144.059 41.5068C144.059 42.3447 143.941 42.8711 143.704 43.0859C142.867 43.0286 142.143 43 141.535 43C141.184 43 140.822 43.0143 140.45 43.043C140.077 43.0716 139.819 43.0859 139.676 43.0859C139.425 43.0859 139.3 42.8102 139.3 42.2588V35.835C139.3 34.904 139.15 34.2236 138.849 33.7939C138.548 33.3571 138.154 33.1387 137.667 33.1387C137.18 33.1387 136.643 33.2855 136.056 33.5791C135.469 33.8656 134.917 34.238 134.402 34.6963C134.438 35.0186 134.455 35.3337 134.455 35.6416V40.25C134.455 40.7155 134.634 40.9626 134.993 40.9912C135.064 40.9984 135.157 41.0055 135.272 41.0127C135.394 41.0199 135.487 41.027 135.551 41.0342C135.623 41.0413 135.709 41.0521 135.809 41.0664C135.909 41.0736 135.988 41.0843 136.045 41.0986C136.103 41.1058 136.167 41.1201 136.239 41.1416C136.317 41.1559 136.378 41.1738 136.421 41.1953C136.464 41.2168 136.504 41.2419 136.539 41.2705C136.582 41.2992 136.611 41.335 136.625 41.3779C136.647 41.4137 136.658 41.4567 136.658 41.5068C136.658 42.3447 136.539 42.8711 136.303 43.0859C135.616 43.0286 134.985 43 134.412 43C134.054 43 133.661 43.0143 133.231 43.043C132.801 43.0716 132.518 43.0859 132.382 43.0859C132.139 43.0859 132.017 42.8102 132.017 42.2588V35.835C132.017 34.904 131.867 34.2236 131.566 33.7939C131.265 33.3571 130.871 33.1387 130.384 33.1387C129.897 33.1387 129.364 33.2891 128.784 33.5898C128.203 33.8906 127.663 34.2773 127.161 34.75V40.3037C127.161 40.404 127.169 40.4899 127.183 40.5615C127.197 40.626 127.226 40.6976 127.269 40.7764C127.312 40.848 127.383 40.9053 127.484 40.9482C127.591 40.984 127.724 41.002 127.881 41.002C128.153 41.002 128.386 41.0449 128.579 41.1309C128.773 41.2168 128.869 41.3457 128.869 41.5176C128.869 42.3555 128.751 42.8783 128.515 43.0859C127.813 43.0286 126.947 43 125.915 43C124.805 43 123.982 43.0286 123.445 43.0859C123.208 42.8711 123.09 42.3483 123.09 41.5176C123.09 41.3457 123.187 41.2168 123.38 41.1309C123.574 41.0449 123.806 41.002 124.078 41.002C124.329 41.002 124.497 40.9518 124.583 40.8516C124.676 40.7513 124.723 40.5758 124.723 40.3252V34.5566C124.723 34.1771 124.612 33.9085 124.39 33.751C124.175 33.5934 123.756 33.5003 123.133 33.4717C123.04 33.4502 122.979 33.4036 122.951 33.332C122.929 33.2604 122.918 33.1064 122.918 32.8701C122.918 32.5049 122.958 32.1826 123.036 31.9033C123.115 31.624 123.194 31.4629 123.273 31.4199C123.824 31.4987 124.358 31.5381 124.873 31.5381C125.196 31.5381 125.536 31.5202 125.894 31.4844C126.252 31.4414 126.442 31.4199 126.463 31.4199C126.714 31.4199 126.875 31.4844 126.947 31.6133C127.025 31.735 127.065 32.0215 127.065 32.4727ZM156.272 36.6514C156.272 36.9808 156.186 37.235 156.015 37.4141C155.85 37.5859 155.535 37.6719 155.069 37.6719H147.657C147.686 38.3236 147.8 38.8857 148.001 39.3584C148.201 39.8311 148.466 40.2035 148.796 40.4756C149.125 40.7406 149.487 40.9375 149.881 41.0664C150.275 41.1882 150.704 41.249 151.17 41.249C151.822 41.249 152.488 41.1344 153.168 40.9053C153.848 40.6761 154.464 40.3538 155.016 39.9385C155.424 40.4183 155.628 40.891 155.628 41.3564C155.628 41.6644 155.424 41.9688 155.016 42.2695C154.607 42.5632 154.056 42.8066 153.361 43C152.667 43.1934 151.943 43.29 151.191 43.29C150.575 43.29 149.988 43.2292 149.43 43.1074C148.878 42.9857 148.334 42.7744 147.797 42.4736C147.267 42.1657 146.809 41.779 146.422 41.3135C146.035 40.848 145.724 40.25 145.487 39.5195C145.251 38.7891 145.133 37.9619 145.133 37.0381C145.133 36.1357 145.305 35.3086 145.648 34.5566C145.992 33.8047 146.447 33.1924 147.013 32.7197C147.578 32.2399 148.209 31.8711 148.903 31.6133C149.605 31.3555 150.325 31.2266 151.062 31.2266C151.607 31.2266 152.129 31.2946 152.631 31.4307C153.132 31.5667 153.605 31.7816 154.049 32.0752C154.493 32.3617 154.879 32.7161 155.209 33.1387C155.538 33.554 155.796 34.0625 155.982 34.6641C156.176 35.2656 156.272 35.9281 156.272 36.6514ZM154.102 36.0068C154.038 35.0114 153.723 34.2559 153.157 33.7402C152.599 33.2174 151.929 32.9561 151.148 32.9561C150.318 32.9561 149.562 33.2354 148.882 33.7939C148.209 34.3454 147.822 35.083 147.722 36.0068H154.102ZM159.785 43.1182H158.743C158.277 41.0915 158.044 39.5625 158.044 38.5312C158.044 38.3665 158.206 38.2305 158.528 38.123C158.85 38.0156 159.187 37.9619 159.538 37.9619C159.681 37.9619 159.795 37.9727 159.881 37.9941C160.11 38.5742 160.429 39.0898 160.837 39.541C161.246 39.9922 161.69 40.3467 162.169 40.6045C162.656 40.8623 163.14 41.0592 163.62 41.1953C164.107 41.3242 164.576 41.3887 165.027 41.3887C165.85 41.3887 166.52 41.2061 167.036 40.8408C167.558 40.4684 167.82 39.9242 167.82 39.208C167.82 38.7282 167.702 38.3092 167.465 37.9512C167.236 37.5859 166.925 37.2923 166.531 37.0703C166.144 36.8411 165.696 36.6406 165.188 36.4688C164.687 36.2969 164.153 36.1357 163.587 35.9854C163.029 35.835 162.467 35.6774 161.901 35.5127C161.342 35.348 160.809 35.1403 160.3 34.8896C159.799 34.639 159.351 34.349 158.957 34.0195C158.571 33.6829 158.259 33.2497 158.023 32.7197C157.794 32.1898 157.679 31.5811 157.679 30.8936C157.679 30.0127 157.951 29.2536 158.496 28.6162C159.04 27.9717 159.724 27.5026 160.547 27.209C161.378 26.9082 162.28 26.7578 163.254 26.7578C164.773 26.7578 166.062 27.1374 167.122 27.8965C167.193 27.7533 167.247 27.6136 167.283 27.4775C167.326 27.3415 167.347 27.2484 167.347 27.1982C167.347 27.1481 167.376 27.1016 167.433 27.0586C167.498 27.0156 167.576 26.9941 167.669 26.9941C167.763 26.987 167.931 26.9834 168.174 26.9834C168.389 26.9834 168.729 27.0013 169.195 27.0371C169.646 29.0352 169.872 30.4567 169.872 31.3018C169.872 31.4163 169.682 31.5094 169.302 31.5811C168.93 31.6527 168.565 31.6885 168.207 31.6885H167.938C167.673 30.7503 167.147 29.9805 166.359 29.3789C165.571 28.7702 164.579 28.4658 163.383 28.4658C162.374 28.4658 161.614 28.6663 161.106 29.0674C160.597 29.4684 160.343 30.0163 160.343 30.7109C160.343 31.1191 160.458 31.4808 160.687 31.7959C160.923 32.111 161.238 32.3724 161.632 32.5801C162.026 32.7806 162.477 32.9632 162.986 33.1279C163.494 33.2926 164.031 33.4538 164.597 33.6113C165.163 33.7689 165.729 33.9372 166.294 34.1162C166.86 34.2952 167.397 34.5173 167.906 34.7822C168.414 35.0472 168.865 35.3516 169.259 35.6953C169.653 36.0391 169.965 36.4795 170.194 37.0166C170.43 37.5465 170.548 38.1481 170.548 38.8213C170.548 39.5876 170.398 40.2679 170.097 40.8623C169.796 41.4495 169.385 41.915 168.862 42.2588C168.346 42.6025 167.766 42.8604 167.122 43.0322C166.484 43.2041 165.797 43.29 165.059 43.29C164.271 43.29 163.487 43.1576 162.707 42.8926C161.933 42.6276 161.231 42.2588 160.601 41.7861L160.418 42.8496C160.404 42.9141 160.383 42.9642 160.354 43C160.332 43.0286 160.275 43.0537 160.182 43.0752C160.089 43.1038 159.957 43.1182 159.785 43.1182ZM182.977 36.6514C182.977 36.9808 182.891 37.235 182.719 37.4141C182.554 37.5859 182.239 37.6719 181.773 37.6719H174.361C174.39 38.3236 174.505 38.8857 174.705 39.3584C174.906 39.8311 175.171 40.2035 175.5 40.4756C175.829 40.7406 176.191 40.9375 176.585 41.0664C176.979 41.1882 177.409 41.249 177.874 41.249C178.526 41.249 179.192 41.1344 179.872 40.9053C180.552 40.6761 181.168 40.3538 181.72 39.9385C182.128 40.4183 182.332 40.891 182.332 41.3564C182.332 41.6644 182.128 41.9688 181.72 42.2695C181.312 42.5632 180.76 42.8066 180.065 43C179.371 43.1934 178.648 43.29 177.896 43.29C177.28 43.29 176.692 43.2292 176.134 43.1074C175.582 42.9857 175.038 42.7744 174.501 42.4736C173.971 42.1657 173.513 41.779 173.126 41.3135C172.739 40.848 172.428 40.25 172.191 39.5195C171.955 38.7891 171.837 37.9619 171.837 37.0381C171.837 36.1357 172.009 35.3086 172.353 34.5566C172.696 33.8047 173.151 33.1924 173.717 32.7197C174.283 32.2399 174.913 31.8711 175.607 31.6133C176.309 31.3555 177.029 31.2266 177.767 31.2266C178.311 31.2266 178.834 31.2946 179.335 31.4307C179.836 31.5667 180.309 31.7816 180.753 32.0752C181.197 32.3617 181.584 32.7161 181.913 33.1387C182.243 33.554 182.5 34.0625 182.687 34.6641C182.88 35.2656 182.977 35.9281 182.977 36.6514ZM180.807 36.0068C180.742 35.0114 180.427 34.2559 179.861 33.7402C179.303 33.2174 178.633 32.9561 177.853 32.9561C177.022 32.9561 176.266 33.2354 175.586 33.7939C174.913 34.3454 174.526 35.083 174.426 36.0068H180.807ZM188.143 32.4727V33.1709C188.465 32.6553 188.945 32.2041 189.583 31.8174C190.22 31.4307 190.829 31.2373 191.409 31.2373C191.788 31.2373 192.15 31.3018 192.494 31.4307C192.837 31.5524 193.135 31.7744 193.385 32.0967C193.643 32.4189 193.772 32.8128 193.772 33.2783C193.772 34.5531 193.095 35.1904 191.742 35.1904C191.713 35.1904 191.684 35.1868 191.656 35.1797C191.627 35.1725 191.602 35.1618 191.581 35.1475C191.566 35.1331 191.552 35.1188 191.538 35.1045C191.523 35.0902 191.509 35.0687 191.495 35.04C191.488 35.0114 191.48 34.9863 191.473 34.9648C191.466 34.9434 191.459 34.9111 191.452 34.8682C191.445 34.818 191.437 34.7786 191.43 34.75C191.43 34.7214 191.427 34.682 191.42 34.6318C191.42 34.5745 191.416 34.528 191.409 34.4922L191.28 33.375C191.087 33.2819 190.875 33.2354 190.646 33.2354C190.231 33.2354 189.812 33.3893 189.389 33.6973C188.974 33.998 188.666 34.349 188.465 34.75V40.1855C188.465 40.293 188.469 40.3789 188.476 40.4434C188.49 40.5007 188.516 40.5687 188.551 40.6475C188.594 40.7262 188.666 40.7871 188.766 40.8301C188.866 40.8659 188.995 40.8838 189.153 40.8838C189.425 40.8838 189.658 40.9268 189.851 41.0127C190.045 41.0986 190.141 41.2275 190.141 41.3994C190.141 41.7432 190.084 42.0833 189.969 42.4199C189.855 42.7565 189.686 42.9785 189.464 43.0859C188.963 43.0286 188.229 43 187.262 43C186.296 43 185.554 43.0286 185.039 43.0859C184.802 42.9785 184.63 42.7601 184.523 42.4307C184.416 42.0941 184.362 41.7503 184.362 41.3994C184.362 41.2275 184.459 41.0986 184.652 41.0127C184.845 40.9268 185.078 40.8838 185.35 40.8838C185.629 40.8838 185.812 40.8265 185.898 40.7119C185.984 40.5902 186.027 40.4219 186.027 40.207V34.5566C186.027 34.1771 185.916 33.9085 185.694 33.751C185.479 33.5934 185.06 33.5003 184.437 33.4717C184.344 33.4502 184.283 33.4036 184.254 33.332C184.233 33.2604 184.222 33.1064 184.222 32.8701C184.222 32.5049 184.262 32.1826 184.34 31.9033C184.419 31.624 184.498 31.4629 184.577 31.4199C185.085 31.4987 185.583 31.5381 186.07 31.5381C186.371 31.5381 186.686 31.5202 187.015 31.4844C187.352 31.4414 187.531 31.4199 187.552 31.4199C187.803 31.4199 187.964 31.4844 188.036 31.6133C188.107 31.735 188.143 32.0215 188.143 32.4727ZM199.454 34.1377L201.893 40.0459L204.073 34.1592C204.109 34.0518 204.127 33.9551 204.127 33.8691C204.127 33.597 203.962 33.4609 203.633 33.4609C203.253 33.4609 203.064 33.3141 203.064 33.0205V32.9453C203.15 32.0931 203.271 31.5846 203.429 31.4199C204.095 31.4987 204.85 31.5381 205.695 31.5381C206.591 31.5381 207.382 31.4987 208.069 31.4199C208.349 31.556 208.488 31.8962 208.488 32.4404C208.488 32.6051 208.463 32.7734 208.413 32.9453C208.377 33.1172 208.252 33.2461 208.037 33.332C207.83 33.418 207.593 33.4609 207.328 33.4609C207.242 33.4609 207.164 33.4681 207.092 33.4824C207.027 33.4896 206.97 33.5111 206.92 33.5469C206.87 33.5755 206.827 33.6006 206.791 33.6221C206.763 33.6364 206.73 33.6758 206.694 33.7402C206.659 33.7975 206.634 33.8369 206.619 33.8584C206.612 33.8727 206.594 33.9193 206.566 33.998C206.537 34.0768 206.519 34.1234 206.512 34.1377L203.934 40.4004C203.876 40.5436 203.798 40.7441 203.697 41.002C203.597 41.2526 203.522 41.4424 203.472 41.5713C203.422 41.693 203.35 41.847 203.257 42.0332C203.171 42.2194 203.089 42.359 203.01 42.4521C202.938 42.5381 202.845 42.6312 202.731 42.7314C202.623 42.8317 202.501 42.9033 202.365 42.9463C202.236 42.9821 202.09 43 201.925 43C201.71 43 201.52 42.9749 201.356 42.9248C201.198 42.8675 201.069 42.8031 200.969 42.7314C200.869 42.6598 200.768 42.5381 200.668 42.3662C200.568 42.1872 200.486 42.026 200.421 41.8828C200.364 41.7324 200.274 41.5068 200.152 41.2061C200.031 40.8981 199.92 40.6296 199.819 40.4004L197.016 34.1162C197.009 34.0947 196.987 34.041 196.951 33.9551C196.916 33.8691 196.89 33.8154 196.876 33.7939C196.862 33.7653 196.83 33.7223 196.779 33.665C196.736 33.6006 196.69 33.5576 196.64 33.5361C196.597 33.5146 196.536 33.4932 196.457 33.4717C196.386 33.4502 196.3 33.4395 196.199 33.4395C195.934 33.4395 195.694 33.3965 195.48 33.3105C195.272 33.2246 195.15 33.0957 195.114 32.9238C195.064 32.6875 195.039 32.4655 195.039 32.2578C195.039 31.8066 195.179 31.5273 195.458 31.4199C196.146 31.4987 196.937 31.5381 197.832 31.5381C198.735 31.5381 199.562 31.4987 200.314 31.4199C200.471 31.5846 200.593 32.0859 200.679 32.9238V32.999C200.679 33.2926 200.453 33.4395 200.002 33.4395C199.594 33.4395 199.39 33.5755 199.39 33.8477C199.39 33.9479 199.411 34.0446 199.454 34.1377ZM212.28 29.626C212.108 29.626 211.933 29.6117 211.754 29.583C211.575 29.5472 211.378 29.4863 211.163 29.4004C210.955 29.3145 210.783 29.1784 210.647 28.9922C210.518 28.806 210.454 28.584 210.454 28.3262C210.454 27.4453 211.048 27.0049 212.237 27.0049C212.574 27.0049 212.856 27.0479 213.086 27.1338C213.322 27.2197 213.494 27.3343 213.601 27.4775C213.716 27.6208 213.795 27.7604 213.838 27.8965C213.881 28.0326 213.902 28.1794 213.902 28.3369C213.902 28.6592 213.802 28.9242 213.601 29.1318C213.401 29.3395 213.186 29.4756 212.957 29.54C212.735 29.5973 212.509 29.626 212.28 29.626ZM214.052 32.4727V40.3037C214.052 40.4111 214.056 40.4971 214.063 40.5615C214.078 40.6188 214.103 40.6868 214.138 40.7656C214.181 40.8444 214.253 40.9053 214.353 40.9482C214.454 40.984 214.582 41.002 214.74 41.002C215.012 41.002 215.245 41.0449 215.438 41.1309C215.632 41.2168 215.728 41.3457 215.728 41.5176C215.728 42.3555 215.61 42.8783 215.374 43.0859C214.729 43.0286 213.941 43 213.01 43C212.044 43 211.141 43.0286 210.303 43.0859C210.067 42.8711 209.949 42.3483 209.949 41.5176C209.949 41.3457 210.046 41.2168 210.239 41.1309C210.432 41.0449 210.665 41.002 210.937 41.002C211.217 41.002 211.399 40.9447 211.485 40.8301C211.571 40.7083 211.614 40.54 211.614 40.3252V34.5566C211.614 34.1771 211.503 33.9085 211.281 33.751C211.066 33.5934 210.647 33.5003 210.024 33.4717C209.931 33.4502 209.87 33.4036 209.842 33.332C209.82 33.2604 209.809 33.1064 209.809 32.8701C209.809 32.5049 209.849 32.1826 209.927 31.9033C210.006 31.624 210.085 31.4629 210.164 31.4199C210.715 31.4987 211.249 31.5381 211.764 31.5381C212.108 31.5381 212.47 31.5202 212.849 31.4844C213.229 31.4414 213.429 31.4199 213.451 31.4199C213.702 31.4199 213.863 31.4844 213.934 31.6133C214.013 31.735 214.052 32.0215 214.052 32.4727ZM227.211 34.1055C227.211 34.528 227.061 34.8861 226.76 35.1797C226.466 35.4733 226.001 35.6201 225.364 35.6201C225.213 35.6201 225.12 35.5879 225.084 35.5234C225.056 35.4518 225.027 35.2692 224.998 34.9756L224.837 33.4395C224.787 33.4036 224.715 33.3643 224.622 33.3213C224.536 33.2712 224.336 33.2067 224.021 33.1279C223.713 33.042 223.387 32.999 223.043 32.999C221.955 32.999 221.074 33.4215 220.401 34.2666C219.735 35.1045 219.402 36.1035 219.402 37.2637C219.402 38.5169 219.727 39.4945 220.379 40.1963C221.031 40.8981 221.973 41.249 223.204 41.249C223.777 41.249 224.4 41.1273 225.074 40.8838C225.754 40.6403 226.309 40.3288 226.739 39.9492C227.147 40.429 227.351 40.8874 227.351 41.3242C227.351 41.6823 227.14 42.0153 226.717 42.3232C226.295 42.6312 225.75 42.8675 225.084 43.0322C224.425 43.2041 223.738 43.29 223.022 43.29C222.191 43.29 221.407 43.1611 220.669 42.9033C219.939 42.6383 219.291 42.2588 218.725 41.7646C218.159 41.2633 217.712 40.6188 217.382 39.8311C217.053 39.0361 216.888 38.141 216.888 37.1455C216.888 36.2217 217.06 35.3802 217.404 34.6211C217.755 33.8548 218.216 33.2318 218.789 32.752C219.362 32.265 220.003 31.8926 220.712 31.6348C221.428 31.3698 222.162 31.2373 222.914 31.2373C223.681 31.2373 224.347 31.3161 224.912 31.4736C225.485 31.624 225.933 31.8353 226.255 32.1074C226.585 32.3796 226.824 32.6839 226.975 33.0205C227.132 33.3499 227.211 33.7116 227.211 34.1055ZM239.682 36.6514C239.682 36.9808 239.597 37.235 239.425 37.4141C239.26 37.5859 238.945 37.6719 238.479 37.6719H231.067C231.096 38.3236 231.21 38.8857 231.411 39.3584C231.612 39.8311 231.876 40.2035 232.206 40.4756C232.535 40.7406 232.897 40.9375 233.291 41.0664C233.685 41.1882 234.114 41.249 234.58 41.249C235.232 41.249 235.898 41.1344 236.578 40.9053C237.258 40.6761 237.874 40.3538 238.426 39.9385C238.834 40.4183 239.038 40.891 239.038 41.3564C239.038 41.6644 238.834 41.9688 238.426 42.2695C238.017 42.5632 237.466 42.8066 236.771 43C236.077 43.1934 235.353 43.29 234.601 43.29C233.986 43.29 233.398 43.2292 232.84 43.1074C232.288 42.9857 231.744 42.7744 231.207 42.4736C230.677 42.1657 230.219 41.779 229.832 41.3135C229.445 40.848 229.134 40.25 228.897 39.5195C228.661 38.7891 228.543 37.9619 228.543 37.0381C228.543 36.1357 228.715 35.3086 229.058 34.5566C229.402 33.8047 229.857 33.1924 230.423 32.7197C230.988 32.2399 231.619 31.8711 232.313 31.6133C233.015 31.3555 233.735 31.2266 234.473 31.2266C235.017 31.2266 235.54 31.2946 236.041 31.4307C236.542 31.5667 237.015 31.7816 237.459 32.0752C237.903 32.3617 238.29 32.7161 238.619 33.1387C238.948 33.554 239.206 34.0625 239.392 34.6641C239.586 35.2656 239.682 35.9281 239.682 36.6514ZM237.513 36.0068C237.448 35.0114 237.133 34.2559 236.567 33.7402C236.009 33.2174 235.339 32.9561 234.558 32.9561C233.728 32.9561 232.972 33.2354 232.292 33.7939C231.619 34.3454 231.232 35.083 231.132 36.0068H237.513Z" fill="#FF5326"/>
</svg>
